<svg id="Capa_1" data-name="Capa 1" xmlns="http://www.w3.org/2000/svg" viewBox="0 0 501 207"><defs><style>.cls-1{fill:#efeeed;}.cls-2{fill:#f9e8ca;}.cls-3{fill:#cbe3f7;}.cls-4{fill:#f8a241;}</style></defs><rect class="cls-1" width="501" height="207"/><path class="cls-2" d="M500,121.76V206.5H0V129.09c11.43-4.2,25.8-7.57,45.05-9.42,62.92-6,81.62,7.57,101.26,22s40.25,29.77,107.05,27.06c38.92-1.57,69.94-8.8,97.1-17.25C404.94,134.56,443.9,112.72,500,121.76Z" transform="translate(0 0.5)"/><path class="cls-3" d="M500,181.3v25.2H0V179.7l2,.08c72.87,2.58,107.48-19.35,144.34-38.09,30.69-15.61,62.93-29,120.13-24.2,39.07,3.28,63.06,19.11,84,34,16.89,12,31.81,23.42,51.07,27.19,22.92,4.48,40.36,4.65,55.23,4.9A304.72,304.72,0,0,0,500,181.3Z" transform="translate(0 0.5)"/><circle class="cls-2" cx="243.77" cy="95.37" r="88.23"/><path id="Icon_material-alarm-on" data-name="Icon material-alarm-on" class="cls-4" d="M308,55,278.46,30.19,270.17,40l29.54,24.79ZM217.31,40l-8.22-9.83L179.55,54.92l8.28,9.82L217.32,40Zm26.46,3.92a57.8,57.8,0,1,0,57.81,57.8h0A57.81,57.81,0,0,0,243.77,43.94Zm0,102.76a45,45,0,1,1,45-45h0a44.93,44.93,0,0,1-44.89,45Zm-9.37-35.13L220.72,97.89l-6.81,6.8,20.42,20.43,38.54-38.54-6.81-6.81Z" transform="translate(0 0.5)"/></svg>