<svg xmlns="http://www.w3.org/2000/svg" width="40.552" height="33.525" viewBox="0 0 40.552 33.525">
  <path id="Icon_awesome-trophy" data-name="Icon awesome-trophy" d="M38.862,4.191H31.54V1.571A1.63,1.63,0,0,0,29.851,0H10.7a1.63,1.63,0,0,0-1.69,1.571V4.191H1.69A1.63,1.63,0,0,0,0,5.762V9.429c0,2.338,1.584,4.741,4.358,6.594a17.253,17.253,0,0,0,7.744,2.73A15.058,15.058,0,0,0,16.9,23.572v4.714H13.517c-2.485,0-4.506,1.355-4.506,3.667v.786a.819.819,0,0,0,.845.786H30.7a.819.819,0,0,0,.845-.786v-.786c0-2.311-2.021-3.667-4.506-3.667H23.655V23.572a15.058,15.058,0,0,0,4.794-4.819,17.193,17.193,0,0,0,7.744-2.73c2.767-1.853,4.358-4.256,4.358-6.594V5.762A1.63,1.63,0,0,0,38.862,4.191ZM6.991,12.624c-1.718-1.152-2.485-2.436-2.485-3.2V8.381h4.52a22,22,0,0,0,.9,5.644,11.681,11.681,0,0,1-2.936-1.4Zm29.055-3.2c0,1.054-1.246,2.364-2.485,3.2a11.729,11.729,0,0,1-2.943,1.4,22,22,0,0,0,.9-5.644h4.527Z" fill="#ffd70d"/>
</svg>
