<svg xmlns="http://www.w3.org/2000/svg" viewBox="0 0 1366.5 129.69"><defs><style>.cls-1{fill:#f9e8ca;}.cls-2{fill:#cbe3f7;}.cls-3{fill:#fcb772;}.cls-4{fill:#fff;}.cls-5{fill:#f7d443;}.cls-6{fill:#70a053;}.cls-7{fill:#698e51;}.cls-8{fill:#d85b5b;}.cls-9{fill:#a54242;}.cls-10{fill:#54699e;}.cls-11{fill:#455b89;}.cls-12{fill:#d6ba47;}.cls-13{fill:none;}.cls-14{fill:#f5dd63;}.cls-15{fill:#0ab3b8;}.cls-16{fill:#adcc42;}.cls-17{fill:#ddbf40;}.cls-18{fill:#1d1d1b;}.cls-19{fill:#4271db;}.cls-20{fill:#82b56f;}.cls-21{fill:#d84479;}</style></defs><g id="Capa_1" data-name="Capa 1"><path class="cls-1" d="M1366,188.5c-17.79-6.57-37.14-26.12-71-27.5-43.46-1.77-71.2,20.35-109,21.5-49.33,1.5-158.08-34.37-198-44.5-87-22.07-127,35.38-241,40-122.46,5-75.57-56.1-191-45-87,8.36-65.35,50.65-147,51-80.58.35-84.54-23.52-160-36.5-56.93-9.79-139.95-10.67-249,33V213H1366.5Z" transform="translate(0 -83.31)"/><path class="cls-2" d="M.5,191.61C18.29,185.87,47.14,157.21,81,156c43.46-1.55,61.7,29.36,99.5,30.37,49.33,1.31,72.08-13,112-21.83,87-19.28,110,19.54,224,23.57C639,192.45,643.57,121.31,759,131c64.68,5.43,84.28,48.37,123.86,56.11,21,4.11,37,4.27,50.64,4.5,94.71,1.58,132.22-42.41,212.5-33.61,44.43,4.87,42,19.34,102,28a389.15,389.15,0,0,0,118.5-1.38V213H0Z" transform="translate(0 -83.31)"/><path class="cls-3" d="M986.85,196.3l-.28.28.86-.28Zm-2.68,0h-.59l.87.28Zm2.68,0-.28.28.86-.28Zm-2.68,0h-.59l.87.28Zm2.68,0-.28.28.86-.28Zm-3.27,0,.87.28-.28-.28Zm51.36,0a2.19,2.19,0,0,1-2.18-2.11,47.61,47.61,0,0,0-1.91-11.39c0-.18-.11-.37-.17-.56a47.24,47.24,0,0,0-3.92-9.11l-.57-1a47.68,47.68,0,0,0-6.58-8.63c-.12-.14-.26-.28-.4-.42a47.72,47.72,0,0,0-9.57-7.5l-1-.56a46.61,46.61,0,0,0-10.4-4.3,5.12,5.12,0,0,0-.56-.15A46.57,46.57,0,0,0,986.07,149h-1.13a47,47,0,0,0-11.63,1.58l-.56.15a47.19,47.19,0,0,0-10.41,4.31c-.33.18-.65.37-1,.56a47.11,47.11,0,0,0-9.56,7.5l-.41.42a47.28,47.28,0,0,0-6.59,8.63c-.18.32-.38.64-.55,1a46.66,46.66,0,0,0-3.93,9.11c-.07.19-.12.38-.17.56a47.12,47.12,0,0,0-1.91,11.39,2.2,2.2,0,0,1-2.18,2.11h-3.9a2.19,2.19,0,0,0-2.19,2.18v11.33a2.19,2.19,0,0,0,2.19,2.19h106.68a2.19,2.19,0,0,0,2.19-2.19V198.48a2.19,2.19,0,0,0-2.19-2.18Zm-21.15,0H957.21a2.2,2.2,0,0,1-2.18-2.38,29.87,29.87,0,0,1,1.05-5.95l.17-.56a30.57,30.57,0,0,1,2.5-5.91c.18-.33.37-.65.57-1a29.87,29.87,0,0,1,3.92-5.16,5.16,5.16,0,0,1,.4-.42,30.44,30.44,0,0,1,6.1-4.84c.32-.2.64-.38,1-.56a29.71,29.71,0,0,1,6.37-2.64c.19,0,.37-.11.56-.15a30.91,30.91,0,0,1,7.3-1h1.13a30.83,30.83,0,0,1,7.3,1c.19,0,.38.1.56.15a31,31,0,0,1,6.37,2.64c.33.18.65.37,1,.56a30.44,30.44,0,0,1,6.1,4.84l.41.42a30.32,30.32,0,0,1,3.91,5.16l.57,1a29.77,29.77,0,0,1,2.49,5.92c.06.19.12.37.16.56a29.92,29.92,0,0,1,1.07,5.94A2.2,2.2,0,0,1,1013.79,196.3Zm-29.62,0h-.59l.87.28Zm2.68,0-.28.28.86-.28Zm-2.68,0h-.59l.87.28Zm2.68,0-.28.28.86-.28Zm-2.68,0h-.59l.87.28Zm2.68,0-.28.28.86-.28Z" transform="translate(0 -83.31)"/><path class="cls-4" d="M950.89,175.67c-.19.32-.38.64-.56,1l-6.07-3.51c.18-.33.37-.65.55-1Z" transform="translate(0 -83.31)"/><path class="cls-4" d="M965.84,161.12c-.32.19-.65.37-1,.57l-3.5-6.08c.32-.19.64-.38,1-.56Z" transform="translate(0 -83.31)"/><path class="cls-4" d="M986.07,149v7h-1.13v-7h1.13Z" transform="translate(0 -83.31)"/><path class="cls-4" d="M1009.64,155.61l-3.51,6.07c-.31-.19-.64-.38-1-.56l3.51-6.07Z" transform="translate(0 -83.31)"/><path class="cls-4" d="M1026.76,173.13l-6.08,3.51c-.18-.33-.37-.65-.56-1l6.07-3.5Z" transform="translate(0 -83.31)"/><path class="cls-4" d="M954.68,166l-.4.42-2.88-2.88.41-.42Z" transform="translate(0 -83.31)"/><path class="cls-4" d="M974.35,154.47l-.56.15-1-3.88.56-.15Z" transform="translate(0 -83.31)"/><path class="cls-4" d="M998.27,150.75l-1,3.87-.56-.15,1-3.87A5.12,5.12,0,0,1,998.27,150.75Z" transform="translate(0 -83.31)"/><path class="cls-4" d="M1019.61,163.53l-2.87,2.88-.41-.42,2.88-2.88C1019.35,163.25,1019.49,163.39,1019.61,163.53Z" transform="translate(0 -83.31)"/><path class="cls-4" d="M1030.85,182.8l-3.94,1.28h0a5,5,0,0,0-.17-.55l4-1.29C1030.74,182.43,1030.8,182.62,1030.85,182.8Z" transform="translate(0 -83.31)"/><path class="cls-4" d="M944.28,183.53a5,5,0,0,0-.16.55l-4-1.28c.05-.18.1-.37.17-.56Z" transform="translate(0 -83.31)"/><rect class="cls-5" x="977.57" y="148.58" width="110.18" height="21.42" rx="2.52" transform="translate(682.91 -908.62) rotate(61.68)"/><path class="cls-4" d="M1042.25,154.53l-6.12,3.29-.25-.49c-.09-.16-.18-.33-.28-.49l6.12-3.3c.1.16.18.33.27.49S1042.17,154.36,1042.25,154.53Z" transform="translate(0 -83.31)"/><path class="cls-4" d="M1033.08,145.92l-.27-.52,3.5-1.88c.1.17.19.34.28.51Z" transform="translate(0 -83.31)"/><path class="cls-4" d="M1047.84,164.91l-3.5,1.89c-.09-.17-.18-.34-.28-.51l3.51-1.88C1047.67,164.58,1047.76,164.74,1047.84,164.91Z" transform="translate(0 -83.31)"/><path class="cls-4" d="M1053.51,175.41l-6.12,3.3-.26-.49c-.08-.16-.17-.33-.27-.49l6.12-3.3.27.49Z" transform="translate(0 -83.31)"/><path class="cls-4" d="M1059.1,185.8l-3.5,1.89c-.09-.17-.18-.34-.28-.51l3.51-1.88C1058.93,185.47,1059,185.63,1059.1,185.8Z" transform="translate(0 -83.31)"/><path class="cls-4" d="M1031,133.64l-6.11,3.3-.26-.49-.27-.49,6.12-3.3c.09.16.18.32.26.48Z" transform="translate(0 -83.31)"/><path class="cls-4" d="M1021.82,125c-.09-.17-.17-.34-.27-.51l3.51-1.89c.09.18.19.34.27.51Z" transform="translate(0 -83.31)"/></g><g id="Capa_2" data-name="Capa 2"><rect class="cls-6" x="371.61" y="71.13" width="121.39" height="20.28"/><rect class="cls-7" x="465.15" y="71.13" width="10.27" height="20.28"/><rect class="cls-7" x="389.99" y="71.13" width="10.27" height="20.28"/><rect class="cls-8" x="344.03" y="106.82" width="145.72" height="22.44"/><rect class="cls-9" x="456.33" y="106.82" width="12.33" height="22.44"/><rect class="cls-9" x="366.1" y="106.82" width="12.33" height="22.44"/><rect class="cls-10" x="327" y="91.41" width="141.94" height="15.41"/><rect class="cls-11" x="436.38" y="91.41" width="12.01" height="15.41"/><rect class="cls-11" x="348.5" y="91.41" width="12.01" height="15.41"/><path class="cls-12" d="M209.34,173.23l-.73.57c-.6.47-1.22.93-1.84,1.37a52.48,52.48,0,0,1-30.49,9.74c-29.24,0-53-24-53-53.45a53.43,53.43,0,0,1,10.43-31.79q.56-.77,1.14-1.5c.28-.35.56-.7.85-1L132,93.31c-.7.82-1.38,1.65-2,2.51A59.1,59.1,0,0,0,135.07,173a58,58,0,0,0,75.43,6c.86-.63,1.71-1.29,2.54-2Z" transform="translate(0 -83.31)"/><line class="cls-13" x1="133.49" y1="13.49" x2="210.93" y2="92.87"/><path class="cls-14" d="M213,177.05c-.83.69-1.68,1.35-2.54,2l-3.73-3.86-3.71-3.82-4.26-4.41L137.38,103.5l-3.7-3.83L130,95.82c.64-.86,1.32-1.69,2-2.51l3.7,3.82,3.67,3.79,23.77,24.56h0l10.6,11L200.37,164l5.3,5.46,3.67,3.8Z" transform="translate(0 -83.31)"/><path class="cls-15" d="M224.06,131.46a48.64,48.64,0,0,1-2.27,14.72,47.63,47.63,0,0,1-45.51,33.44A47.44,47.44,0,0,1,160.77,177a48.16,48.16,0,0,1-32.27-45.57,48.7,48.7,0,0,1,1.8-13.14A47.71,47.71,0,0,1,192.08,86a47,47,0,0,1,7.09,3.18A48.2,48.2,0,0,1,224.06,131.46Z" transform="translate(0 -83.31)"/><path class="cls-16" d="M199.38,166.12c-3.11,5-8.82,3-12.86,8.47a8.66,8.66,0,0,0-1.72,4.27,47.88,47.88,0,0,1-24-1.83.14.14,0,0,0,0-.06c.82-2.32-.56-5.44-2.62-7.14-2.52-2.08-4.4-.67-7.88-2.38-2.56-1.27-6.26-4.37-6-7.41.37-4.95,10.91-6.85,10.5-10.85-.17-1.67-2-1.83-2.1-3.44-.11-3.41,8.23-4.08,9.72-9,1-3.18-1.08-7.74-4.2-9.26-5.55-2.69-12.49,5.2-15.75,2.65-2.74-2.14,1-8.54-2.11-11.38-2.52-2.29-7,.08-10-.44A47.71,47.71,0,0,1,192.08,86c-1,4.45-3.91,9.5-7.92,12.12-4.65,3-9.23,1.79-11,5.3-2.14,4.17,3,8.55.79,12.43s-8.14,1.67-10.24,5.29c-1.83,3.16.18,9.13,3.94,12.44,7.18,6.32,17.84.33,21.79,6.09,2.18,3.18-.31,6.15,2.62,10.31,2.44,3.47,5.62,2.36,7.62,5.56A10.67,10.67,0,0,1,199.38,166.12Z" transform="translate(0 -83.31)"/><path class="cls-16" d="M224.06,131.46a48.64,48.64,0,0,1-2.27,14.72c-9.87,1.37-20.84-7.65-21.36-15.51-.45-6.86,7.3-9.35,6.57-16.41-.83-8-11.29-9.33-11.82-16.14-.22-2.87,1.38-6.11,4-8.94A48.2,48.2,0,0,1,224.06,131.46Z" transform="translate(0 -83.31)"/><rect class="cls-12" x="171.56" y="106.9" width="6.04" height="17.73"/><rect class="cls-12" x="142.42" y="123.83" width="64.32" height="5.56"/><line class="cls-17" x1="1187.91" y1="40.2" x2="1270.4" y2="40.2"/><rect class="cls-18" x="1187.91" y="39.34" width="82.49" height="1.72"/><line class="cls-17" x1="1187.91" y1="59.14" x2="1270.4" y2="59.14"/><rect class="cls-18" x="1187.91" y="58.27" width="82.49" height="1.72"/><line class="cls-17" x1="1188.77" y1="78.07" x2="1271.26" y2="78.07"/><rect class="cls-18" x="1188.77" y="77.2" width="82.49" height="1.72"/><rect class="cls-17" x="1184.68" y="19.55" width="7.74" height="95.51"/><rect class="cls-17" x="1268.15" y="19.55" width="7.74" height="95.51"/><rect class="cls-5" x="1175" y="113.34" width="111" height="15.49"/><rect class="cls-19" x="1197.37" y="34.67" width="7.74" height="11.06" rx="2.31"/><rect class="cls-19" x="1205.98" y="34.67" width="7.74" height="11.06" rx="2.31"/><rect class="cls-19" x="1214.58" y="34.67" width="7.74" height="11.06" rx="2.31"/><rect class="cls-20" x="1197.37" y="71.67" width="7.74" height="11.06" rx="2.31"/><rect class="cls-20" x="1205.98" y="71.67" width="7.74" height="11.06" rx="2.31"/><rect class="cls-20" x="1214.58" y="71.67" width="7.74" height="11.06" rx="2.31"/><rect class="cls-20" x="1223.19" y="71.67" width="7.74" height="11.06" rx="2.31"/><rect class="cls-21" x="1197.37" y="136.91" width="7.74" height="11.06" rx="2.31" transform="translate(2402.49 201.58) rotate(180)"/><rect class="cls-21" x="1205.98" y="136.91" width="7.74" height="11.06" rx="2.31" transform="translate(2419.7 201.58) rotate(180)"/><rect class="cls-21" x="1244.7" y="52.74" width="7.74" height="11.06" rx="2.31"/><rect class="cls-21" x="1253.3" y="52.74" width="7.74" height="11.06" rx="2.31"/><rect class="cls-19" x="1254.16" y="34.67" width="7.74" height="11.06" rx="2.31"/></g></svg>