<svg xmlns="http://www.w3.org/2000/svg" width="20" height="17.5" viewBox="0 0 20 17.5">
  <path id="Icon_awesome-eraser" data-name="Icon awesome-eraser" d="M19.451,11.7a1.875,1.875,0,0,0,0-2.652L13.2,2.8a1.875,1.875,0,0,0-2.652,0l-10,10a1.875,1.875,0,0,0,0,2.652L4.3,19.2a1.875,1.875,0,0,0,1.326.549H19.531A.469.469,0,0,0,20,19.281V17.719a.469.469,0,0,0-.469-.469H13.9L19.451,11.7ZM7.629,9.254,13,14.621,10.366,17.25H5.884L2.759,14.125,7.629,9.254Z" transform="translate(0 -2.25)" fill="#fff"/>
</svg>
