<svg id="Capa_1" data-name="Capa 1" xmlns="http://www.w3.org/2000/svg" viewBox="0 0 1063.74 207.54"><defs><style>.cls-1{fill:#f8a241;}.cls-2{fill:#2b72bf;}.cls-3{fill:#fff;}</style></defs><path d="M540.33,272.41q-7.61-6.29-22.22-6.29A34.44,34.44,0,0,0,502,269.87,46,46,0,0,0,489.7,279a47.73,47.73,0,0,0-7.17,9.43,36.54,36.54,0,0,0-8.66-14.5q-7.71-7.81-23.95-7.81a35,35,0,0,0-12.38,2.13,42.2,42.2,0,0,0-10.35,5.58,43.75,43.75,0,0,0-7.91,7.41c-.74.9-1.4,1.77-2,2.63v-3.35a12.17,12.17,0,0,0-3.45-8.82,12.5,12.5,0,0,0-17.45,0,12.17,12.17,0,0,0-3.45,8.82v83.82a12.14,12.14,0,0,0,3.45,8.82,12.47,12.47,0,0,0,17.45,0,12.14,12.14,0,0,0,3.45-8.82V312.39A26.19,26.19,0,0,1,420,300.31a21,21,0,0,1,8.22-8.62,25.37,25.37,0,0,1,13.19-3.25q7.92,0,12.17,3.25a16.48,16.48,0,0,1,5.89,8.62,41.84,41.84,0,0,1,1.62,12.08v51.95a12.14,12.14,0,0,0,3.45,8.82,12.48,12.48,0,0,0,17.46,0,12.18,12.18,0,0,0,3.45-8.82V312.39a26.31,26.31,0,0,1,2.73-12.08,21,21,0,0,1,8.22-8.62,25.39,25.39,0,0,1,13.19-3.25q7.92,0,12.18,3.25a16.59,16.59,0,0,1,5.89,8.62,41.84,41.84,0,0,1,1.62,12.08v51.95a12.14,12.14,0,0,0,3.45,8.82,12.47,12.47,0,0,0,17.45,0,12.14,12.14,0,0,0,3.45-8.82V312.39a88.7,88.7,0,0,0-2.84-23.24A32,32,0,0,0,540.33,272.41Z" transform="translate(-92.78 -171.2)"/><path d="M666.86,266.12a11.64,11.64,0,0,0-8.73,3.55,12.17,12.17,0,0,0-3.45,8.83v.29a47.53,47.53,0,0,0-4-3.34,48.31,48.31,0,0,0-12.68-6.7,47.12,47.12,0,0,0-16-2.63,44.71,44.71,0,0,0-24.76,7.2,51.38,51.38,0,0,0-17.76,19.89q-6.59,12.68-6.59,29.32,0,16.44,6.59,29.12a50.7,50.7,0,0,0,18,19.89,46.45,46.45,0,0,0,25.37,7.2,39.58,39.58,0,0,0,14.31-2.53A47.37,47.37,0,0,0,648.59,370a42.78,42.78,0,0,0,6.1-5.47,12.13,12.13,0,0,0,3.44,8.61,12.47,12.47,0,0,0,17.45,0,12.14,12.14,0,0,0,3.45-8.82V278.5a12.07,12.07,0,0,0-3.45-8.93A11.82,11.82,0,0,0,666.86,266.12Zm-14.92,73.66A30.2,30.2,0,0,1,641.49,352a27.56,27.56,0,0,1-15.63,4.46A27.22,27.22,0,0,1,610.44,352,30.2,30.2,0,0,1,600,339.78a38.92,38.92,0,0,1-3.75-17.25A39.4,39.4,0,0,1,600,305.08a30.2,30.2,0,0,1,10.45-12.18,27.22,27.22,0,0,1,15.42-4.46,27.56,27.56,0,0,1,15.63,4.46,30.2,30.2,0,0,1,10.45,12.18,39.4,39.4,0,0,1,3.76,17.45A38.92,38.92,0,0,1,651.94,339.78Z" transform="translate(-92.78 -171.2)"/><path d="M752.69,292.5a11.19,11.19,0,0,0,8.12-3.15,10.44,10.44,0,0,0,3.25-7.81,11.09,11.09,0,0,0-11.37-11.36h-14.4v-13a12.39,12.39,0,0,0-3.35-8.83,11.35,11.35,0,0,0-8.63-3.55,12.15,12.15,0,0,0-12.38,12.38v13H704.6a11.18,11.18,0,0,0-8.12,3.14,10.45,10.45,0,0,0-3.24,7.81A11.09,11.09,0,0,0,704.6,292.5h9.33v56q0,9.94,3.05,15.62a21,21,0,0,0,7.61,8.42,25.35,25.35,0,0,0,9.74,3.45,68.91,68.91,0,0,0,9.44.72,25.69,25.69,0,0,0,13.29-3.66q6.18-3.65,6.19-9.33a10.65,10.65,0,0,0-2.34-7.31,6.85,6.85,0,0,0-5.17-2.64,11.25,11.25,0,0,0-4.67.92,10.71,10.71,0,0,1-4.46.91,10.6,10.6,0,0,1-4.16-.81,6.37,6.37,0,0,1-3.05-2.64,8.87,8.87,0,0,1-1.11-4.67v-55Z" transform="translate(-92.78 -171.2)"/><path d="M863.6,272.41q-7.62-6.29-22.23-6.29A34.93,34.93,0,0,0,829,268.25a42.2,42.2,0,0,0-10.35,5.58,43.49,43.49,0,0,0-7.92,7.41c-.74.9-1.4,1.77-2,2.63v-45a12.17,12.17,0,0,0-3.45-8.82,12.5,12.5,0,0,0-17.45,0,12.17,12.17,0,0,0-3.45,8.82V364.34a12.14,12.14,0,0,0,3.45,8.82,12.47,12.47,0,0,0,17.45,0,12.14,12.14,0,0,0,3.45-8.82V312.39a26.32,26.32,0,0,1,2.74-12.08,21,21,0,0,1,8.22-8.62,25.37,25.37,0,0,1,13.19-3.25q7.92,0,12.18,3.25a16.52,16.52,0,0,1,5.88,8.62,41.83,41.83,0,0,1,1.63,12.08v51.95a12.09,12.09,0,0,0,3.45,8.82,12.47,12.47,0,0,0,17.45,0,12.14,12.14,0,0,0,3.45-8.82V312.39a88.7,88.7,0,0,0-2.84-23.24A32,32,0,0,0,863.6,272.41Z" transform="translate(-92.78 -171.2)"/><path class="cls-1" d="M921.94,233q-2.85-2.23-9.94-2.23-6.51,0-9.64,2.13t-3.15,8v3.86q0,5.69,2.84,7.91t9.74,2.24c4.6,0,7.92-.72,10-2.13s3-4.1,3-8V241Q924.78,235.28,921.94,233Z" transform="translate(-92.78 -171.2)"/><path d="M912,268.15a11.64,11.64,0,0,0-8.73,3.55,12.17,12.17,0,0,0-3.45,8.82v83.82a12.14,12.14,0,0,0,3.45,8.82,12.47,12.47,0,0,0,17.45,0,12.14,12.14,0,0,0,3.45-8.82V280.52a12.17,12.17,0,0,0-3.45-8.82A11.64,11.64,0,0,0,912,268.15Z" transform="translate(-92.78 -171.2)"/><path d="M1030.51,268.35q-7.3-.41-10.76,7.71L992,339.94l-28-64.08a11.81,11.81,0,0,0-4.87-5.79,13.68,13.68,0,0,0-7.1-1.92,11.22,11.22,0,0,0-8.72,3.55q-3.25,3.56-3.25,7.2a12.94,12.94,0,0,0,.51,3.86c.33,1.08.64,2,.91,2.64L979.16,369a12.73,12.73,0,0,0,5.38,6.29,11.08,11.08,0,0,0,7.41,1.43q7.09-.41,10.35-7.72l38-83.6c.4-.95.77-2,1.11-3a10.13,10.13,0,0,0,.51-3,10.65,10.65,0,0,0-3.14-7.82A11.15,11.15,0,0,0,1030.51,268.35Z" transform="translate(-92.78 -171.2)"/><path d="M1152.37,299.19a57,57,0,0,0-11.26-17.14,53.63,53.63,0,0,0-16.34-11.67,46.19,46.19,0,0,0-19.58-4.26,50,50,0,0,0-25.37,6.9,52.41,52.41,0,0,0-19.38,19.78Q1053,305.7,1053,324a57.24,57.24,0,0,0,6.8,28,49.76,49.76,0,0,0,19.48,19.58q12.69,7.2,29.93,7.2a59.07,59.07,0,0,0,19.69-3.34q9.54-3.36,14.81-7.82,5.68-4.45,5.69-9.94a10.24,10.24,0,0,0-10.35-10.15,15.42,15.42,0,0,0-6.9,1.83q-2.23,1.21-5,2.94a26.9,26.9,0,0,1-7.21,2.94,46.8,46.8,0,0,1-12,1.22,31.32,31.32,0,0,1-15.32-4,31.48,31.48,0,0,1-15.53-21.61h67a12.88,12.88,0,0,0,8.52-3,10.43,10.43,0,0,0,3.86-7.92A52.25,52.25,0,0,0,1152.37,299.19Zm-67.68-3.65a21.83,21.83,0,0,1,9.13-5.48,38.58,38.58,0,0,1,11.37-1.62,26.54,26.54,0,0,1,11.87,2.74,27.2,27.2,0,0,1,9.33,7.41,18.45,18.45,0,0,1,4.16,10.55v1.42h-53.17a35.63,35.63,0,0,1,1.22-4.67A26.61,26.61,0,0,1,1084.69,295.54Z" transform="translate(-92.78 -171.2)"/><path class="cls-2" d="M223.39,279.82l-.64.64,2-.64Zm-6.16,0h-1.34l2,.64Zm6.16,0-.64.64,2-.64Zm-6.16,0h-1.34l2,.64Zm6.16,0-.64.64,2-.64Zm-7.5,0,2,.64-.64-.64Zm118,0a5,5,0,0,1-5-4.84,108.53,108.53,0,0,0-4.38-26.15c-.12-.42-.25-.85-.39-1.28a108.42,108.42,0,0,0-9-20.93c-.43-.75-.87-1.5-1.3-2.23a108.45,108.45,0,0,0-15.11-19.81c-.29-.32-.61-.64-.93-1a108.79,108.79,0,0,0-22-17.23c-.73-.45-1.48-.87-2.22-1.28a106.54,106.54,0,0,0-23.89-9.88c-.41-.14-.84-.25-1.28-.36a108.5,108.5,0,0,0-26.74-3.65c-.43,0-.87,0-1.3,0s-.86,0-1.28,0a109.19,109.19,0,0,0-26.7,3.63l-1.3.36a108.29,108.29,0,0,0-23.91,9.9c-.75.41-1.49.83-2.22,1.28a108.17,108.17,0,0,0-22,17.23c-.32.32-.64.64-.93,1a108.55,108.55,0,0,0-15.13,19.81c-.42.73-.87,1.48-1.28,2.23a107.23,107.23,0,0,0-9,20.93c-.15.43-.27.86-.39,1.28A108,108,0,0,0,111.78,275a5,5,0,0,1-5,4.84h-9a5,5,0,0,0-5,5v26a5,5,0,0,0,5,5h245a5,5,0,0,0,5-5v-26a5,5,0,0,0-5-5Zm-48.57,0H155.32a5,5,0,0,1-5-5.45,69,69,0,0,1,2.43-13.66l.37-1.29a69.15,69.15,0,0,1,5.75-13.58c.41-.74.84-1.49,1.3-2.22a69.82,69.82,0,0,1,9-11.86c.28-.32.58-.64.92-1a69.86,69.86,0,0,1,14-11.11c.73-.46,1.48-.89,2.23-1.3a68.12,68.12,0,0,1,14.63-6c.42-.12.85-.25,1.28-.35A70.46,70.46,0,0,1,219,209.65h2.58A70.26,70.26,0,0,1,238.37,212c.43.1.86.23,1.29.35a70.28,70.28,0,0,1,14.61,6c.77.41,1.51.86,2.24,1.3a69.86,69.86,0,0,1,14,11.11q.48.48.93,1a70.24,70.24,0,0,1,9,11.86c.44.73.87,1.48,1.3,2.22a69.26,69.26,0,0,1,5.73,13.6c.14.43.27.86.37,1.28a69.07,69.07,0,0,1,2.44,13.64A5,5,0,0,1,285.27,279.82Zm-68,0h-1.34l2,.64Zm6.16,0-.64.64,2-.64Zm-6.16,0h-1.34l2,.64Zm6.16,0-.64.64,2-.64Zm-6.16,0h-1.34l2,.64Zm6.16,0-.64.64,2-.64Z" transform="translate(-92.78 -171.2)"/><path class="cls-3" d="M140.81,232.46c-.44.73-.87,1.47-1.28,2.22l-14-8.06c.41-.75.86-1.5,1.28-2.23Z" transform="translate(-92.78 -171.2)"/><path class="cls-3" d="M175.15,199c-.75.43-1.5.86-2.23,1.3l-8-14c.73-.45,1.47-.87,2.22-1.28Z" transform="translate(-92.78 -171.2)"/><path class="cls-3" d="M221.59,171.22v16.09H219V171.22c.43,0,.85,0,1.28,0S221.16,171.2,221.59,171.22Z" transform="translate(-92.78 -171.2)"/><path class="cls-3" d="M275.72,186.39l-8,13.94c-.73-.45-1.48-.88-2.23-1.29l8.05-13.93C274.24,185.52,275,185.94,275.72,186.39Z" transform="translate(-92.78 -171.2)"/><path class="cls-3" d="M315,226.62l-14,8.06c-.41-.76-.86-1.49-1.3-2.24l13.95-8.05C314.17,225.12,314.62,225.87,315,226.62Z" transform="translate(-92.78 -171.2)"/><path class="cls-3" d="M149.51,210.22l-.92,1-6.61-6.6c.29-.32.61-.64.93-1Z" transform="translate(-92.78 -171.2)"/><path class="cls-3" d="M194.69,183.77l-1.3.34-2.38-8.9,1.3-.36Z" transform="translate(-92.78 -171.2)"/><path class="cls-3" d="M249.61,175.23l-2.39,8.88-1.28-.34,2.39-8.9C248.77,175,249.2,175.09,249.61,175.23Z" transform="translate(-92.78 -171.2)"/><path class="cls-3" d="M298.63,204.58l-6.6,6.6c-.29-.32-.61-.64-.93-1l6.6-6.6C298,203.94,298.34,204.26,298.63,204.58Z" transform="translate(-92.78 -171.2)"/><path class="cls-3" d="M324.44,248.83l-9.06,2.94h0a13.07,13.07,0,0,0-.37-1.26l9.06-3C324.19,248,324.32,248.41,324.44,248.83Z" transform="translate(-92.78 -171.2)"/><path class="cls-3" d="M125.63,250.51a13.11,13.11,0,0,0-.38,1.26l-9.09-2.94c.12-.42.24-.85.39-1.28Z" transform="translate(-92.78 -171.2)"/><rect class="cls-1" x="2.66" y="155.19" width="255.05" height="49.59" rx="4.73"/><path class="cls-3" d="M223.8,326.41V342.5c-.43,0-.85,0-1.28,0s-.87,0-1.3,0V326.41c.43,0,.85,0,1.28,0S223.37,326.39,223.8,326.41Z" transform="translate(-92.78 -171.2)"/><path class="cls-3" d="M196.18,335.64c-.45,0-.89,0-1.34,0v-9.21c.46,0,.91,0,1.35,0Z" transform="translate(-92.78 -171.2)"/><path class="cls-3" d="M251.11,326.44v9.19c-.44,0-.88,0-1.32,0v-9.22A11.77,11.77,0,0,1,251.11,326.44Z" transform="translate(-92.78 -171.2)"/><path class="cls-3" d="M278.73,326.41V342.5c-.42,0-.85,0-1.28,0s-.87,0-1.3,0V326.41c.43,0,.86,0,1.28,0S278.31,326.39,278.73,326.41Z" transform="translate(-92.78 -171.2)"/><path class="cls-3" d="M306,326.44v9.19c-.44,0-.88,0-1.32,0v-9.22A11.7,11.7,0,0,1,306,326.44Z" transform="translate(-92.78 -171.2)"/><path class="cls-3" d="M168.88,326.41V342.5c-.42,0-.85,0-1.28,0s-.87,0-1.3,0V326.41c.43,0,.86,0,1.28,0S168.46,326.39,168.88,326.41Z" transform="translate(-92.78 -171.2)"/><path class="cls-3" d="M141.27,335.64c-.46,0-.9,0-1.34,0v-9.21c.47,0,.91,0,1.35,0Z" transform="translate(-92.78 -171.2)"/></svg>