<svg xmlns="http://www.w3.org/2000/svg" width="24" height="24" viewBox="0 0 24 24">
  <path id="Icon_open-puzzle-piece" data-name="Icon open-puzzle-piece" d="M9,0A3.038,3.038,0,0,0,6.84.84,3.038,3.038,0,0,0,6,3a5.6,5.6,0,0,0,.84,2.16A2.161,2.161,0,0,1,6.93,6H0V24H6.93a2.962,2.962,0,0,0-.09-.84A5.6,5.6,0,0,1,6,21a3.038,3.038,0,0,1,.84-2.16A3.038,3.038,0,0,1,9,18a3.038,3.038,0,0,1,2.16.84A3.038,3.038,0,0,1,12,21a5.6,5.6,0,0,1-.84,2.16,2.161,2.161,0,0,0-.09.84H18V17.07a2.962,2.962,0,0,1,.84.09A5.6,5.6,0,0,0,21,18a3,3,0,1,0,0-6,5.6,5.6,0,0,0-2.16.84,2.161,2.161,0,0,1-.84.09V6H11.07a2.962,2.962,0,0,1,.09-.84A5.6,5.6,0,0,0,12,3,3.038,3.038,0,0,0,11.16.84,3.038,3.038,0,0,0,9,0Z" fill="#86b97e"/>
</svg>
