<svg xmlns="http://www.w3.org/2000/svg" width="31.999" height="24" viewBox="0 0 31.999 24">
  <path id="Icon_awesome-ruler" data-name="Icon awesome-ruler" d="M31.781,8.685,27.8,1.91a1.609,1.609,0,0,0-2.175-.575L22.177,3.29l2.985,5.084a.388.388,0,0,1-.145.535l-.69.39a.4.4,0,0,1-.545-.145L20.8,4.075,18.037,5.64l1.395,2.37a.388.388,0,0,1-.145.535l-.69.39a.4.4,0,0,1-.545-.145L16.657,6.425,13.9,7.99l2.99,5.084a.389.389,0,0,1-.145.535l-.69.39a.4.4,0,0,1-.545-.145L12.523,8.77l-2.76,1.565,1.395,2.37a.388.388,0,0,1-.145.535l-.69.39a.4.4,0,0,1-.545-.145L8.383,11.109l-2.76,1.565,2.985,5.084a.389.389,0,0,1-.145.535l-.69.39a.4.4,0,0,1-.545-.145L4.243,13.469.794,15.424a1.555,1.555,0,0,0-.585,2.14l3.98,6.779a1.609,1.609,0,0,0,2.175.575L31.2,10.825A1.552,1.552,0,0,0,31.781,8.685Z" transform="translate(0.004 -1.127)" fill="#5b63cf"/>
</svg>
