<svg xmlns="http://www.w3.org/2000/svg" width="80.734" height="81.776" viewBox="0 0 80.734 81.776">
  <g id="tachuela" transform="matrix(0.809, 0.588, -0.588, 0.809, 35.531, -4.258)">
    <rect id="Rectángulo_147" data-name="Rectángulo 147" width="9.432" height="31.831" transform="translate(27.92 34.959)" fill="#878686"/>
    <path id="Trazado_172" data-name="Trazado 172" d="M446.984,393.254c0,4.887-2.283,9.416-6.141,13.065l-.187.171c-.065.062-.133.128-.2.187-5.764,5.229-14.813,8.6-24.978,8.6s-19.277-3.386-25.027-8.634l-.253-.236c-.033-.03-.062-.057-.092-.09-3.861-3.652-6.144-8.17-6.144-13.059,0-6.3,3.8-11.99,9.872-16.019a42.029,42.029,0,0,1,43.161-.084C443.134,381.181,446.984,386.915,446.984,393.254Z" transform="translate(-383.91 -354.755)" fill="#91c1f8"/>
    <path id="Trazado_173" data-name="Trazado 173" d="M462.051,352.619a16.846,16.846,0,0,1-3.239,3.918c-.136.119-.272.239-.407.356s-.253.215-.383.32l-.1.084c-.1.079-.2.157-.3.236-.168.133-.339.272-.519.388s-.293.212-.445.318h0c-.138.1-.288.2-.434.293l-.06.041h0q-.22.147-.448.285c-.157.1-.326.2-.491.3s-.326.193-.494.285-.342.193-.521.285-.348.182-.527.271-.348.174-.527.258h-.019c-.174.084-.356.166-.543.244s-.367.163-.543.242l-.092.038c-.312.13-.627.255-.95.375l-.193.071-.491.176c-.176.062-.358.122-.543.182-.415.133-.839.272-1.265.38-.2.057-.413.114-.622.166l-.5.125-.312.071c-.258.06-.516.114-.782.168s-.489.1-.733.138h-.016c-.247.043-.494.087-.747.125l-.543.079c-.144.022-.3.041-.445.057-.209.027-.421.052-.633.073h-.041c-.179.022-.367.038-.543.054q-.375.033-.758.057c-.2.014-.4.027-.6.035l-.6.024c-.358,0-.719.019-1.086.019H438.7a4.628,4.628,0,0,1-.475-.016l-.323-.014h-.087c-.187,0-.375-.019-.559-.033-.239-.014-.478-.033-.714-.054h0c-.228-.019-.451-.041-.679-.065H435.8l-.543-.062-.272-.038-.133-.016-.177-.027c-.122-.014-.242-.033-.361-.052l-.559-.09c-.223-.038-.443-.079-.662-.122s-.426-.084-.641-.13c-.147-.03-.293-.062-.437-.1s-.247-.054-.372-.084l-.543-.138q-.641-.166-1.271-.361l-.622-.2h0l-.611-.212c-.426-.149-.839-.307-1.246-.475-.141-.057-.272-.114-.418-.174-.272-.111-.521-.228-.777-.345-.166-.076-.328-.155-.494-.236s-.323-.16-.478-.242l-.13-.065c-.16-.087-.326-.171-.486-.272l-.527-.3c-.176-.1-.348-.2-.519-.31-.109-.065-.215-.133-.32-.2l-.035-.024-.244-.155-.046-.033-.136-.09-.027-.019c-.1-.065-.19-.128-.285-.2l-.38-.272-.462-.348c-.125-.092-.244-.187-.364-.272s-.255-.206-.38-.315c-.2-.16-.383-.326-.565-.494a16.625,16.625,0,0,1-3.28-3.931l.9-4.887,2.12-11.514.033-.163.136-.749L422.8,321.09a49.573,49.573,0,0,1,33.3-.041l2.682,14.24.12.635.062.326,2.145,11.4Z" transform="translate(-407.979 -316.116)" fill="#2b72bf"/>
    <path id="Trazado_174" data-name="Trazado 174" d="M459.089,327.535a13.9,13.9,0,0,1-4.74,10.078c-.049.046-.092.09-.144.133l-.152.144c-4.447,4.035-11.433,6.633-19.277,6.633s-14.865-2.612-19.307-6.663l-.2-.182c-.022-.022-.049-.043-.071-.068a13.871,13.871,0,0,1-4.74-10.076c0-4.86,2.927-9.25,7.616-12.351a32.426,32.426,0,0,1,33.3-.065C456.116,318.22,459.089,322.635,459.089,327.535Z" transform="translate(-403.215 -310.55)" fill="#91c1f8"/>
  </g>
</svg>
