<svg xmlns="http://www.w3.org/2000/svg" width="660.692" height="469.301" viewBox="0 0 660.692 469.301">
  <g id="Grupo_234" data-name="Grupo 234" transform="translate(-170.249 0)" opacity="0.76">
    <ellipse id="Elipse_62" data-name="Elipse 62" cx="294" cy="52" rx="294" ry="52" transform="translate(211.681 365.301)" fill="#f0f0f0"/>
    <path id="Trazado_183" data-name="Trazado 183" d="M963.568,533.15h-551V439.607h8.5V369.981a61.944,61.944,0,0,1,61.874-61.874H894.194a61.944,61.944,0,0,1,61.874,61.874v69.626h7.5Z" transform="translate(-184.529 -215.349)" fill="#e4e4e4"/>
    <path id="Trazado_184" data-name="Trazado 184" d="M978.5,636.107H951.069v-.5a91.6,91.6,0,0,0-91.5-91.5h-343a91.6,91.6,0,0,0-91.5,91.5v.5H397.64a23.6,23.6,0,0,1-23.571-23.571V459.625c-7.965-4.5-14.443-28.94-10.235-48.459,2.641-12.249,10.264-27.042,31.586-27.958,20.756-.893,36.161,18.593,37.538,37.351a40.454,40.454,0,0,1-8.148,27.548h.26v21.814c45.008-14.423,90.081-21.763,133.974-21.814A410.047,410.047,0,0,1,691.072,470.08c88.384-28.587,175.853-29.143,260-1.647V448.107h.26a40.454,40.454,0,0,1-8.148-27.548c1.509-20.574,18.339-37.329,37.516-37.351h.064c22.614,0,30.612,13.614,33.34,25.04,4.828,20.222-4.036,46.839-12.031,51.376V612.536A23.6,23.6,0,0,1,978.5,636.107Z" transform="translate(-184.529 -215.349)" fill="#cacaca"/>
    <path id="Path_164" data-name="Path 164" d="M785.32,478.42s8.247-13.53,18.835-5.53,30.2,21.5,30.2,21.5,4.016,8.634-6.379,5.391-44.328-8.462-44.328-8.462Z" transform="translate(-184.529 -215.349)" fill="#9e616a"/>
    <path id="Path_161" data-name="Path 161" d="M744.806,495.236c-8.874,0-17-.85-23.452-2.86-7.672-2.389-12.489-6.252-14.319-11.491a13.529,13.529,0,0,1,2.121-13.413c11.35-14.788,50.734-18.96,56.018-19.452l10.721-20.3c.686-4.844-2.56-8.51,3.048-8.6l66.33-.9c5.507-.116,3.944,3.294,4.887,8.017l10.106,18.04-43.494,18.356,6.576,16.024-.429.249C810.189,486.287,773.582,495.235,744.806,495.236Z" transform="translate(-184.529 -215.349)" fill="#2f2e41"/>
    <path id="Path_162" data-name="Path 162" d="M854.244,445.044s60.742-6.951,56.78,20.854-50.178,47.5-120.163,0l7.923-13.9s26.079-1.3,41.925-8.248Z" transform="translate(-184.529 -215.349)" fill="#2f2e41"/>
    <path id="Trazado_186" data-name="Trazado 186" d="M848.631,304.33l-21.837-8.167-42.326-.546-18.219,8.714,5.117,29.409s-10.332,17.494,1.044,34.991l2.553,62.343s40.808,23.664,75.253-4.753l-7.785-57.964s13.022-26.893,2.929-36.884Z" transform="translate(-184.529 -215.349)" fill="#3f3d56"/>
    <path id="Path_163" data-name="Path 163" d="M837.728,471.664s-6.8-14.312-18.161-7.451-32.26,18.256-32.26,18.256-4.889,8.171,5.786,6.022,44.966-3.826,44.966-3.826Z" transform="translate(-184.529 -215.349)" fill="#9e616a"/>
    <path id="Trazado_187" data-name="Trazado 187" d="M827.074,424.379h-42.6a4.043,4.043,0,0,1-4.043-4.043h0l-1.877-55.745a4.043,4.043,0,0,1,4.043-4.043h46.358a4.043,4.043,0,0,1,4.043,4.043h0l-1.877,55.745A4.043,4.043,0,0,1,827.074,424.379Z" transform="translate(-184.529 -215.349)" fill="#fff"/>
    <circle id="Elipse_63" data-name="Elipse 63" cx="3.755" cy="3.755" r="3.755" transform="translate(617.488 158.341)" fill="#6c63ff"/>
    <path id="Trazado_188" data-name="Trazado 188" d="M806.945,402.19a10.179,10.179,0,0,0-15.158-3.724l-19.894-12.055-10.275,10.3,28.333,16.629a10.234,10.234,0,0,0,16.993-11.153Z" transform="translate(-184.529 -215.349)" fill="#9e616a"/>
    <path id="Trazado_189" data-name="Trazado 189" d="M805.988,397.651a10.179,10.179,0,0,1,15.585-.855l21.781-8.166,8.19,12.026-30.92,11.1a10.234,10.234,0,0,1-14.636-14.1Z" transform="translate(-184.529 -215.349)" fill="#9e616a"/>
    <path id="Trazado_190" data-name="Trazado 190" d="M846.278,304.087s14.141-2.828,17.912,9.427,22.626,57.508,16.969,64.107-26.4,24.512-33,28.282-9.427,3.771-9.427,3.771l-8.485,3.771-2.828-21.683,9.676-5.732,14.835-12.18L843.45,348.4Z" transform="translate(-184.529 -215.349)" fill="#3f3d56"/>
    <path id="Trazado_191" data-name="Trazado 191" d="M767.889,304.487s-14.141-2.828-17.912,9.427-22.626,57.508-16.969,64.107,26.4,24.511,33,28.282,9.427,3.771,9.427,3.771l8.485,3.771,2.828-21.683-9.676-5.732-14.835-12.18,13.67-33.468Z" transform="translate(-184.529 -215.349)" fill="#3f3d56"/>
    <circle id="Elipse_64" data-name="Elipse 64" cx="32.588" cy="32.588" r="32.588" transform="translate(590.181 6.918)" fill="#9e616a"/>
    <path id="Trazado_192" data-name="Trazado 192" d="M839.715,231.019a20.793,20.793,0,0,0-10.88-10.511,19.852,19.852,0,0,0-14.884.013c-4.308-2.722-9.095-4.88-14.136-5.147s-10.371,1.6-13.478,5.72a22,22,0,0,1-2.355,3.059c-2.5,2.313-6.292,1.979-9.611,1.506l4.467,3.828-5.407,1.412,6.309,3.827c-6.105,3.664-8.88,11.663-8.147,18.927.693,6.877,4.014,13.166,7.983,18.756,1.583-3.341,1.242-7.339,1.216-11.1-.027-3.976.676-8.491,3.862-10.714,2.149-1.5,4.913-1.566,7.505-1.552a344.8,344.8,0,0,1,39.114,2.442,11.011,11.011,0,0,1,5.008,1.452c2.871,1.958,3.43,6,3.718,9.546a69.165,69.165,0,0,0,2.208-17.93C842.167,239.922,841.635,235.2,839.715,231.019Z" transform="translate(-184.529 -215.349)" fill="#2f2e41"/>
    <path id="Path_163-2" data-name="Path 163" d="M582.566,541.488s5.742,13.585,16.585,7.668,30.742-15.663,30.742-15.663,4.878-7.4-5.135-5.835-41.969,1.728-41.969,1.728Z" transform="translate(-184.529 -215.349)" fill="#feb8b8"/>
    <path id="Trazado_193" data-name="Trazado 193" d="M501.493,255.582a11.223,11.223,0,0,1,.255,15.673,10.754,10.754,0,0,1-1.346,1.167l11.276,37.588-19.188-6-7.766-34.774a11.181,11.181,0,0,1,1.366-13.609,10.76,10.76,0,0,1,15.4-.043Z" transform="translate(-184.529 -215.349)" fill="#ffb6b6"/>
    <path id="Trazado_194" data-name="Trazado 194" d="M398.438,318.288l12.055-4.249L399.476,264.48l-17.793,6.272Z" fill="#feb8b8"/>
    <path id="Path_163-3" data-name="Path 163" d="M627.332,520.782s10.536,10.321,18.259.68,22.326-26.3,22.326-26.3,1.648-8.708-6.988-3.4-38.058,17.776-38.058,17.776Z" transform="translate(-184.529 -215.349)" fill="#feb8b8"/>
    <path id="Trazado_195" data-name="Trazado 195" d="M440.146,298.034l9.485-8.568-29.273-41.479-14,12.647Z" fill="#feb8b8"/>
    <path id="Trazado_196" data-name="Trazado 196" d="M507.845,294.087l2.2,6.693,9.9,30.061a15.932,15.932,0,0,1-9.935,20.236,15.588,15.588,0,0,1-11.168-.569l-55.693-25.346a16.648,16.648,0,0,1-7.33-24.156,15.851,15.851,0,0,1,21.027-5.358l38.606,21.917-4.359-20.786Z" transform="translate(-184.529 -215.349)" fill="#a2bcd9"/>
    <path id="Trazado_197" data-name="Trazado 197" d="M595.488,510.188l-19.021,8.758-38.743-75.717c-33.214,18.541-65.883,32.245-97.327,35.056a19.773,19.773,0,0,1-21.276-17.829q-.078-.76-.1-1.523c-.26-11.752,1.845-25.186,4.883-39.283l53.492.666,4.364,6.68,48.226-24.347a19.756,19.756,0,0,1,26.518,9.123q.392.787.715,1.605Z" transform="translate(-184.529 -215.349)" fill="#2f2e41"/>
    <path id="Trazado_198" data-name="Trazado 198" d="M619.484,482.911l-19.021,8.758-61.354-60.355c-33.214,18.541-65.883,32.245-97.327,35.056a19.773,19.773,0,0,1-21.276-17.829q-.078-.76-.1-1.523c-.26-11.752,1.845-25.186,4.883-39.283l56.6-14.747,1.255,22.094,48.226-24.347a19.756,19.756,0,0,1,26.518,9.123q.392.787.715,1.605Z" transform="translate(-184.529 -215.349)" fill="#2f2e41"/>
    <ellipse id="Elipse_65" data-name="Elipse 65" cx="25.589" cy="26.159" rx="25.589" ry="26.159" transform="translate(218.32 25.412) rotate(-19.413)" fill="#ffb6b6"/>
    <path id="Trazado_199" data-name="Trazado 199" d="M477.546,287.812a2.053,2.053,0,0,0,1.624,2.342c.674-.148,19.286,4.289,19.324,3.016a1.984,1.984,0,0,0,.8-1.317l8.306-54.288a2.057,2.057,0,0,0-.491-1.673c.26-1.415-18.83.237-19.552.095a1.95,1.95,0,0,0-1.846,1.66Z" transform="translate(-184.529 -215.349)" fill="#3f3d56"/>
    <path id="Trazado_200" data-name="Trazado 200" d="M503.757,237.837s-16.1,1.039-15.915.776c-.4.124-1.4-.167-1.451.513l-7.618,47.728c-.627,1.2,17.253,2.922,17.532,3.3,1.483.336,7.441-51.218,8.023-51.677a.559.559,0,0,0-.455-.634.534.534,0,0,0-.116-.007Z" transform="translate(-184.529 -215.349)" fill="#6c63ff"/>
    <path id="Trazado_201" data-name="Trazado 201" d="M462.679,290.451a7.094,7.094,0,0,0-.181-1.865,6.938,6.938,0,0,0-8.249-5.249l-11.664,2.694a6.859,6.859,0,0,0-5.047,8.321,7.066,7.066,0,0,0,2.517,3.948,31.418,31.418,0,0,0-17.775,29.6c-3.825,24.51-3.406,51.151,2.787,80.7l58.148,6.1,4.671-47.264,1.707-7.336c.465-1.053.9-2.093,1.287-3.134a55.965,55.965,0,0,0,4.034-18.3,41.8,41.8,0,0,0-1.624-13.287C489.284,311.588,478.161,300.266,462.679,290.451Z" transform="translate(-184.529 -215.349)" fill="#f1f5b1"/>
    <path id="Trazado_202" data-name="Trazado 202" d="M494.915,338.67a55.973,55.973,0,0,1-4.034,18.3c-.39,1.041-.822,2.081-1.288,3.134l-1.707,7.336c-17.791-5.589-43.83-43.1-43.83-43.1l14.79-8.685Z" transform="translate(-184.529 -215.349)" opacity="0.2"/>
    <path id="Trazado_203" data-name="Trazado 203" d="M481.866,270.978a11.249,11.249,0,0,0,8.642,13.095,10.8,10.8,0,0,0,1.772.209l11.914,37.392,12.466-15.731-13.225-33.1a11.218,11.218,0,0,0-8.816-10.48,10.735,10.735,0,0,0-12.753,8.612Z" transform="translate(-184.529 -215.349)" fill="#ffb6b6"/>
    <path id="Trazado_204" data-name="Trazado 204" d="M497.864,308.2l18.5-3.7,12.1,36.751a16.186,16.186,0,0,1-2.929,15.495h0a15.508,15.508,0,0,1-18.171,4.174l-55.694-25.349a16.722,16.722,0,0,1-8.794-21.246h0a15.858,15.858,0,0,1,20.911-9.019,16.273,16.273,0,0,1,1.582.754l38.6,21.917Z" transform="translate(-184.529 -215.349)" fill="#b9d1ec"/>
    <path id="Trazado_205" data-name="Trazado 205" d="M446.816,221.573c-6.226-1.217-12.505.989-18.428,3.161l-12.873,4.722c-5.208,1.91-10.679,4.005-14.148,8.378s-3.894,11.782.607,15.168c-11.491-4.69-25.031-1.3-34.65,6.4a33.363,33.363,0,0,0-10.794,14.334c-2.26,6.223-2.131,13.165-.76,19.7s3.928,12.758,6.471,18.935c1.6,3.884,3.62,8.188,7.528,9.565,3.606,1.27,7.6-.522,10.339-3.166,4.771-4.611,6.781-11.457,7.74-18.113s1.072-13.489,2.915-19.938,5.846-12.71,12.054-14.981c-2.072,7.643.3,16.852,6.85,21.3,4.708,3.2,10.815,3.565,16.278,2.28s10.44-4.056,15.339-6.8c3.317-1.856,7.077-4.442,7.026-8.316-.05-3.8-3.717-6.361-5.976-9.417-4.361-5.9-2.982-15.271,2.865-19.476l-.716-.337c5.669-1.133,11.883-4.125,13.089-9.872C458.888,228.828,453.042,222.79,446.816,221.573Z" transform="translate(-184.529 -215.349)" fill="#2f2e41"/>
    <path id="Trazado_206" data-name="Trazado 206" d="M455.945,485.651a44.374,44.374,0,0,1-16.294-3.11A42.188,42.188,0,0,1,416.18,460.1l-32.073-73.708c-9.221-21.192,1.113-45.685,23.038-54.6l.545-.221L473.21,482.146l-.545.221a44.36,44.36,0,0,1-16.721,3.284Z" transform="translate(-184.529 -215.349)" fill="#3f3d56"/>
    <path id="Trazado_207" data-name="Trazado 207" d="M924,478.435a36.286,36.286,0,0,1-14.1-2.852l-.468-.2,55.441-131.815.461.194a36.542,36.542,0,0,1,19.494,47.8l-27.139,64.525A36.558,36.558,0,0,1,924,478.435Z" transform="translate(-184.529 -215.349)" fill="#3f3d56"/>
  </g>
</svg>
