<svg xmlns="http://www.w3.org/2000/svg" width="351.35" height="254.675" viewBox="0 0 351.35 254.675">
  <g id="Grupo_216" data-name="Grupo 216" transform="translate(0 0)" opacity="0.36">
    <path id="Trazado_183" data-name="Trazado 183" d="M494.706,584.643v61.392H340.9c-17.525,0-31.783-13.771-31.783-30.7s14.258-30.7,31.783-30.7Z" transform="translate(-270.808 -393.721)" fill="#f2f2f2"/>
    <path id="Trazado_184" data-name="Trazado 184" d="M494.79,643.979a2.362,2.362,0,0,1-2.361,2.361H334.463a32.349,32.349,0,1,1,0-64.7H492.429a2.361,2.361,0,1,1,0,4.722H334.463a27.626,27.626,0,1,0,0,55.253H492.429A2.362,2.362,0,0,1,494.79,643.979Z" transform="translate(-267.114 -392.138)" fill="#2b72bf"/>
    <path id="Trazado_185" data-name="Trazado 185" d="M516.872,613.588H351.586a.472.472,0,0,1,0-.945H516.872a.472.472,0,0,1,0,.945Z" transform="translate(-292.974 -408.498)" fill="#ccc"/>
    <path id="Trazado_186" data-name="Trazado 186" d="M516.872,637.588H351.586a.472.472,0,0,1,0-.945H516.872a.472.472,0,0,1,0,.945Z" transform="translate(-292.974 -421.164)" fill="#ccc"/>
    <path id="Trazado_187" data-name="Trazado 187" d="M516.872,661.588H351.586a.472.472,0,0,1,0-.945H516.872a.472.472,0,0,1,0,.945Z" transform="translate(-292.974 -433.83)" fill="#ccc"/>
    <path id="Trazado_188" data-name="Trazado 188" d="M516.872,685.588H351.586a.472.472,0,0,1,0-.945H516.872a.472.472,0,0,1,0,.945Z" transform="translate(-292.974 -446.497)" fill="#ccc"/>
    <path id="Trazado_189" data-name="Trazado 189" d="M763.431,493.207l-38.519,47.8-119.768-96.5c-13.646-11-16.109-30.664-5.489-43.843s30.362-14.956,44.008-3.961Z" transform="translate(-420.66 -290.729)" fill="#f2f2f2"/>
    <path id="Trazado_190" data-name="Trazado 190" d="M724.479,539.918a2.362,2.362,0,0,1-3.32.357l-123-99.111a32.349,32.349,0,1,1,40.593-50.379l123,99.111a2.361,2.361,0,1,1-2.963,3.677l-123-99.111a27.626,27.626,0,0,0-34.667,43.024l123,99.111A2.362,2.362,0,0,1,724.479,539.918Z" transform="translate(-416.99 -287.633)" fill="#ccc"/>
    <path id="Trazado_191" data-name="Trazado 191" d="M790.979,515.642l-128.7-103.7a.472.472,0,0,1,.593-.735l128.7,103.7a.472.472,0,1,1-.593.735Z" transform="translate(-457.098 -302.132)" fill="#ccc"/>
    <path id="Trazado_192" data-name="Trazado 192" d="M775.921,534.33l-128.7-103.7a.472.472,0,0,1,.593-.735l128.7,103.7a.472.472,0,1,1-.593.735Z" transform="translate(-449.151 -311.995)" fill="#ccc"/>
    <path id="Trazado_193" data-name="Trazado 193" d="M760.863,553.019l-128.7-103.7a.472.472,0,0,1,.593-.735l128.7,103.7a.472.472,0,1,1-.593.735Z" transform="translate(-441.204 -321.858)" fill="#ccc"/>
    <path id="Trazado_194" data-name="Trazado 194" d="M745.8,571.707,617.1,468a.472.472,0,0,1,.593-.735l128.7,103.7a.472.472,0,0,1-.593.735Z" transform="translate(-433.257 -331.72)" fill="#ccc"/>
    <path id="Trazado_195" data-name="Trazado 195" d="M578.878,718.588H228.472a.472.472,0,0,1,0-.945H578.878a.472.472,0,0,1,0,.945Z" transform="translate(-228 -463.912)" fill="#ccc"/>
    <path id="Trazado_196" data-name="Trazado 196" d="M329.178,367.35h-5.4l-2.568-20.824h7.968Z" transform="translate(-169.521 -182.88)" fill="#ffb8b8"/>
    <path id="Trazado_197" data-name="Trazado 197" d="M311.156,387.355h10.412v6.556H304.6a6.556,6.556,0,0,1,6.556-6.556Z" transform="translate(-160.754 -204.429)" fill="#2f2e41"/>
    <path id="Trazado_198" data-name="Trazado 198" d="M212.383,367.35h-5.4l-2.568-20.824h7.968Z" transform="translate(-107.882 -182.88)" fill="#ffb8b8"/>
    <path id="Trazado_199" data-name="Trazado 199" d="M194.362,387.355h10.412v6.556H187.806a6.556,6.556,0,0,1,6.556-6.556Z" transform="translate(-99.116 -204.429)" fill="#2f2e41"/>
    <path id="Trazado_200" data-name="Trazado 200" d="M487.471,224.231V221.87a15.23,15.23,0,0,1,15.23-15.23h0a15.23,15.23,0,0,1,15.23,15.23v2.361a10.98,10.98,0,0,1-10.98,10.98h-8.5a10.98,10.98,0,0,1-10.98-10.98Z" transform="translate(-364.937 -194.228)" fill="#2f2e41"/>
    <circle id="Elipse_50" data-name="Elipse 50" cx="11.599" cy="11.599" r="11.599" transform="translate(126.165 18.598)" fill="#ffb8b8"/>
    <path id="Trazado_201" data-name="Trazado 201" d="M634.488,376.475" transform="translate(-442.526 -283.859)" fill="#ffb8b8"/>
    <path id="Trazado_202" data-name="Trazado 202" d="M384.542,327.362a4.428,4.428,0,0,1,6.744.792l9.943-1.881,2.617,5.763L389.766,334.5a4.452,4.452,0,0,1-5.225-7.134Z" transform="translate(-309.868 -257.302)" fill="#ffb8b8"/>
    <path id="Trazado_203" data-name="Trazado 203" d="M450.466,283.679l.13.2-16.3,10.741L406.779,303.4a1.656,1.656,0,0,0-1.139,1.765l.6,5.169a1.653,1.653,0,0,0,1.988,1.425l25.893-5.55a9.354,9.354,0,0,0,3.481-1.533l18.317-13.033a4.711,4.711,0,0,0-5.324-7.771Z" transform="translate(-321.745 -234.579)" fill="#ccc"/>
    <path id="Trazado_204" data-name="Trazado 204" d="M488.49,446.575a2.134,2.134,0,0,1-1.954-1.276l-24.75-61.156a.708.708,0,0,0-1.326.075l-20.192,59.537a2.126,2.126,0,0,1-2.778,1.365l-6.771-2.539a2.12,2.12,0,0,1-1.368-1.75c-3.046-26.537,23.518-93.519,23.787-94.192l.074-.187,24.215,5.357.05.055c9.661,10.539,17.6,77.015,19.1,90.234a2.115,2.115,0,0,1-1.4,2.242l-5.977,2.114a2.106,2.106,0,0,1-.7.121Z" transform="translate(-334.135 -268.015)" fill="#2f2e41"/>
    <path id="Trazado_205" data-name="Trazado 205" d="M493.846,315.645c-5.867,0-12.408-1.17-14.421-6l-.046-.111.063-.1c1.589-2.607,3.69-7.056,2.561-7.89-2.224-1.644-3.3-4.349-3.207-8.04a19.371,19.371,0,0,1,13.585-17.7h0a60.287,60.287,0,0,1,6.735-1.734,11.466,11.466,0,0,1,9.507,2.348,11.582,11.582,0,0,1,4.3,8.912c.083,8.562-1.235,20.488-7.987,28.675a2.1,2.1,0,0,1-1.243.723,57.718,57.718,0,0,1-9.841.92Z" transform="translate(-360.355 -229.694)" fill="#ccc"/>
    <path id="Trazado_206" data-name="Trazado 206" d="M505.862,350.772a4.513,4.513,0,0,1,5.515-3.147,4.44,4.44,0,0,1,.684.253l7.55-6.871,5.25,3.537-10.8,9.554a4.5,4.5,0,0,1-5.106,2.166,4.436,4.436,0,0,1-3.1-5.493Z" transform="translate(-374.554 -265.141)" fill="#ffb8b8"/>
    <path id="Trazado_207" data-name="Trazado 207" d="M526.931,320.422a2.119,2.119,0,0,1-1.344-.479l-2.977-2.433a2.125,2.125,0,0,1,.052-3.332l12.487-9.577a.71.71,0,0,0,.134-.989l-7.707-10.189a6.274,6.274,0,0,1,.419-8.082h0a6.256,6.256,0,0,1,8.447-.676l.049.051,8.048,11.524a7.175,7.175,0,0,1-.17,11.421L528.2,320.005A2.128,2.128,0,0,1,526.931,320.422Z" transform="translate(-383.07 -234.704)" fill="#ccc"/>
    <path id="Trazado_208" data-name="Trazado 208" d="M497.965,225.945V220.19l10.274-4.486,9.8,4.486v5.755a.944.944,0,0,1-.944.944H498.909A.944.944,0,0,1,497.965,225.945Z" transform="translate(-370.475 -199.011)" fill="#2f2e41"/>
    <path id="Trazado_209" data-name="Trazado 209" d="M518.3,193.533c-1.511-4.835,1.662-10.376,6.352-12.29s10.3-.576,14.259,2.586,6.413,7.9,7.714,12.794,1.548,10,1.788,15.06c5.762,1.058,9.682,7.893,7.686,13.4s-9.385,8.245-14.487,5.366-6.581-10.618-2.9-15.175a12.455,12.455,0,0,0-14.492-19.319C521.379,197.143,517.816,194.057,518.3,193.533Z" transform="translate(-381.006 -180.357)" fill="#2f2e41"/>
    <path id="Trazado_210" data-name="Trazado 210" d="M357.865,252.784a49.325,49.325,0,0,1-20-4.38,2.112,2.112,0,0,1-1.252-1.938v-17.2a2.127,2.127,0,0,1,2.125-2.125h38.252a2.128,2.128,0,0,1,2.125,2.125v17.2a2.112,2.112,0,0,1-1.252,1.938h0A49.325,49.325,0,0,1,357.865,252.784Z" transform="translate(-285.322 -205.048)" fill="#2b72bf"/>
    <path id="Trazado_211" data-name="Trazado 211" d="M345.33,220.026a2.127,2.127,0,0,1-.826-.166l-30.333-12.8a2.125,2.125,0,0,1,.072-3.945l30.333-11.508a2.117,2.117,0,0,1,1.517,0l29.927,11.508a2.125,2.125,0,0,1,.073,3.938l-29.927,12.8a2.128,2.128,0,0,1-.836.17Z" transform="translate(-272.792 -186.222)" fill="#2b72bf"/>
    <circle id="Elipse_51" data-name="Elipse 51" cx="2.833" cy="2.833" r="2.833" transform="translate(52.001 38.859)" fill="#3f3d56"/>
    <path id="Trazado_212" data-name="Trazado 212" d="M376.679,219.748l-29.928,12.8a1.889,1.889,0,0,1-1.477,0l-30.333-12.8a1.853,1.853,0,0,1-.9-.794,1.888,1.888,0,0,0,.9,2.683l30.333,12.8a1.889,1.889,0,0,0,1.477,0l29.928-12.8a1.888,1.888,0,0,0,.895-2.679,1.855,1.855,0,0,1-.895.79Z" transform="translate(-273.274 -200.729)" opacity="0.2"/>
    <path id="Trazado_213" data-name="Trazado 213" d="M344.09,243.036a.472.472,0,0,0,.472-.472v-15.8l15.575-5.674a.472.472,0,0,0,.014-.944l-15.575,5.674a.926.926,0,0,0-.677.272.938.938,0,0,0-.282.673v15.8A.472.472,0,0,0,344.09,243.036Z" transform="translate(-289.018 -201.354)" fill="#3f3d56"/>
  </g>
</svg>
