<svg xmlns="http://www.w3.org/2000/svg" width="447.467" height="336.674" viewBox="0 0 447.467 336.674">
  <g id="Grupo_169" data-name="Grupo 169" transform="translate(0 -0.002)" opacity="0.79">
    <path id="Trazado_152" data-name="Trazado 152" d="M744.967,501.105c-52.7,0-93.989-9.551-93.989-21.744,0-7.31,14.629-13.832,40.135-17.894a.7.7,0,1,1,.221,1.385c-24.026,3.826-38.952,10.152-38.952,16.508,0,11.026,42.4,20.341,92.586,20.341s92.586-9.315,92.586-20.341c0-6.383-15.021-12.724-39.2-16.548a.7.7,0,1,1,.219-1.386c25.665,4.059,40.385,10.6,40.385,17.934C838.955,491.554,797.67,501.105,744.967,501.105Z" transform="translate(-391.488 -285.071)" fill="#ccc"/>
    <path id="Trazado_153" data-name="Trazado 153" d="M718.5,523.738a54,54,0,0,0,93.392-.235,850.106,850.106,0,0,1-93.392.235Z" transform="translate(-411.649 -303.609)" fill="#e6e6e6"/>
    <path id="Trazado_154" data-name="Trazado 154" d="M813.919,472.827a54.006,54.006,0,1,0-103.708.56,401.369,401.369,0,0,0,103.708-.561Z" transform="translate(-408.506 -267.929)" fill="#e6e6e6"/>
    <path id="Trazado_155" data-name="Trazado 155" d="M395.1,216.313a6.313,6.313,0,1,0-8.768,5.817v32.76h4.91v-32.76A6.314,6.314,0,0,0,395.1,216.313Z" transform="translate(-311.315 -210)" fill="#ccc"/>
    <path id="Trazado_156" data-name="Trazado 156" d="M445.008,424.952h0a14.043,14.043,0,0,1-14.018-14.569A14.328,14.328,0,0,1,445.342,396.9h38.539l31.712-14.039a3.512,3.512,0,0,1,4.627,1.787l8.518,19.241a3.511,3.511,0,0,1-1.787,4.626l-31.235,13.827a24.831,24.831,0,0,1-9.821,2.137Z" transform="translate(-325.798 -261.524)" fill="#ccc"/>
    <path id="Trazado_157" data-name="Trazado 157" d="M307.617,505.142a3.22,3.22,0,0,1-.545-.046l-20.742-3.54h0a3.156,3.156,0,0,1-2.566-3.718L300,415.035a13.677,13.677,0,0,1,26.963,4.61L310.7,502.592A3.135,3.135,0,0,1,307.617,505.142Z" transform="translate(-281.823 -267.825)" fill="#ccc"/>
    <circle id="Elipse_38" data-name="Elipse 38" cx="12.625" cy="12.625" r="12.625" transform="translate(2.074 230.062)" fill="#e6e6e6"/>
    <circle id="Elipse_39" data-name="Elipse 39" cx="46.994" cy="46.994" r="46.994" transform="translate(28.954 40.456)" fill="#e6e6e6"/>
    <circle id="Elipse_40" data-name="Elipse 40" cx="46.994" cy="46.994" r="46.994" transform="translate(28.954 40.456)" fill="#e6e6e6"/>
    <path id="Trazado_214" data-name="Trazado 214" d="M35.772,0A35.772,35.772,0,1,1,0,35.772,35.772,35.772,0,0,1,35.772,0Z" transform="translate(40.177 51.678)" fill="#ffc686"/>
    <path id="Trazado_158" data-name="Trazado 158" d="M391.143,345.92c-2.319-.064-5.2-.145-7.428-1.769a5.7,5.7,0,0,1-2.245-4.259,3.837,3.837,0,0,1,1.3-3.152,4.952,4.952,0,0,1,4.684-.674l-1.893-13.836,1.39-.19,2.226,16.266-1.161-.533c-1.346-.617-3.193-.931-4.34.039a2.465,2.465,0,0,0-.809,2.031,4.311,4.311,0,0,0,1.67,3.176c1.73,1.264,4.03,1.427,6.639,1.5Z" transform="translate(-311.012 -243.454)" fill="#2f2e41"/>
    <rect id="Rect치ngulo_139" data-name="Rect치ngulo 139" width="7.555" height="1.403" transform="translate(60.125 79.969)" fill="#2f2e41"/>
    <rect id="Rect치ngulo_140" data-name="Rect치ngulo 140" width="7.555" height="1.403" transform="translate(83.973 79.969)" fill="#2f2e41"/>
    <path id="Trazado_159" data-name="Trazado 159" d="M350.134,319.733A35.779,35.779,0,0,1,380.48,284.37,35.767,35.767,0,1,0,379.919,355,35.775,35.775,0,0,1,350.134,319.733Z" transform="translate(-298.26 -232.056)" opacity="0.2"/>
    <path id="Trazado_160" data-name="Trazado 160" d="M404.918,504.308H333.374A11.586,11.586,0,0,1,321.8,492.735V412.073A11.586,11.586,0,0,1,333.374,400.5h10.872v3.156a8.075,8.075,0,0,0,8.066,8.066H385.98a8.075,8.075,0,0,0,8.066-8.066V400.5h10.872a11.586,11.586,0,0,1,11.573,11.573v80.662A11.586,11.586,0,0,1,404.918,504.308Z" transform="translate(-293.198 -266.881)" fill="#e6e6e6"/>
    <path id="Trazado_161" data-name="Trazado 161" d="M426.439,614.762H398.376v-32.4L361.727,526.17l23.5-15.327,36.489,55.95a25.384,25.384,0,0,1,4.124,13.442Z" transform="translate(-305.12 -299.829)" fill="#e6e6e6"/>
    <path id="Trazado_162" data-name="Trazado 162" d="M371.833,654.565H344.478V572.5h27.355Z" transform="translate(-299.969 -318.239)" fill="#e6e6e6"/>
    <path id="Trazado_163" data-name="Trazado 163" d="M404.084,568.869H343.763a5.969,5.969,0,0,1-5.962-5.962V540.462a5.969,5.969,0,0,1,5.962-5.962h60.321a5.969,5.969,0,0,1,5.962,5.962v22.445a5.969,5.969,0,0,1-5.962,5.962Z" transform="translate(-297.975 -306.893)" fill="#e6e6e6"/>
    <path id="Trazado_164" data-name="Trazado 164" d="M447.093,668.244H414.478V646.5h32.615a10.872,10.872,0,1,1,0,21.744Z" transform="translate(-320.871 -340.335)" fill="#ccc"/>
    <path id="Trazado_165" data-name="Trazado 165" d="M377.093,680.244H344.478V658.5h32.615a10.872,10.872,0,0,1,0,21.744Z" transform="translate(-299.969 -343.918)" fill="#ccc"/>
    <path id="Trazado_166" data-name="Trazado 166" d="M425.885,449.41H399.933a2.455,2.455,0,0,1,0-4.91h25.952a2.455,2.455,0,0,1,0,4.91Z" transform="translate(-315.795 -280.019)" fill="#fff"/>
    <path id="Trazado_167" data-name="Trazado 167" d="M425.885,461.91H399.933a2.455,2.455,0,1,1,0-4.91h25.952a2.455,2.455,0,0,1,0,4.91Z" transform="translate(-315.795 -283.752)" fill="#fff"/>
    <path id="Trazado_168" data-name="Trazado 168" d="M435.332,689.4H281.723a.7.7,0,0,1,0-1.4H435.332a.7.7,0,0,1,0,1.4Z" transform="translate(-281.022 -352.727)" fill="#3f3d56"/>
    <circle id="Elipse_42" data-name="Elipse 42" cx="12.625" cy="12.625" r="12.625" transform="translate(192.156 116.434)" fill="#e6e6e6"/>
    <path id="Trazado_169" data-name="Trazado 169" d="M576.686,398.421a4.213,4.213,0,0,1-4.208-4.208v-151.5a4.208,4.208,0,1,1,8.417,0v151.5A4.213,4.213,0,0,1,576.686,398.421Z" transform="translate(-368.048 -218.509)" fill="#3f3d56"/>
    <path id="Trazado_170" data-name="Trazado 170" d="M706.1,233.774c-3.7-3.234-16.392-13.3-32.77-15.136-12.253-1.368-26.569,1.866-40.716,16.02-11.349,11.349-22.052,16.729-31.816,16-9.967-.75-16.6-7.835-19.661-11.994a1.714,1.714,0,0,0-1.943-.617,1.732,1.732,0,0,0-1.213,1.669v52.367a1.76,1.76,0,0,0,1,1.585c3.822,1.81,17.591,7.821,31.451,7.821,8.129,0,16.3-2.069,22.5-8.277.063-.063.119-.119.182-.175,10.984-10.689,35.2-8.494,52.865-5,7.309,1.445,13.5,3.107,17.164,4.173a3.151,3.151,0,0,0,4.026-3.03V236.152a3.165,3.165,0,0,0-1.073-2.378Z" transform="translate(-369.69 -212.493)" fill="#ffc686"/>
    <circle id="Elipse_43" data-name="Elipse 43" cx="6.313" cy="6.313" r="6.313" transform="translate(358.389 157.817)" fill="#fff"/>
    <circle id="Elipse_44" data-name="Elipse 44" cx="6.313" cy="6.313" r="6.313" transform="translate(347.167 227.257)" fill="#fff"/>
    <circle id="Elipse_45" data-name="Elipse 45" cx="10.521" cy="10.521" r="10.521" transform="translate(322.617 175.352)" fill="#fff"/>
  </g>
</svg>
